<mxfile host="app.diagrams.net" modified="2024-04-02T11:27:18.365Z" agent="Mozilla/5.0 (X11; Ubuntu; Linux x86_64; rv:122.0) Gecko/20100101 Firefox/122.0" version="24.2.1" etag="vhlIErKyqDqQw5IK7Zrb" type="github">
  <diagram name="Page-1" id="8wmJzN9fzxNDu7iuiiDf">
    <mxGraphModel>
      <root>
        <mxCell id="0" />
        <mxCell id="1" parent="0" />
      </root>
    </mxGraphModel>
  </diagram>
</mxfile>
